<svg width="76" height="44" viewBox="0 0 76 44" fill="none" xmlns="http://www.w3.org/2000/svg">
<g clip-path="url(#clip0)">
<path fill-rule="evenodd" clip-rule="evenodd" d="M32.2143 11.2193C26.8529 11.2193 22.5084 15.5593 22.5084 20.915V29.4103C22.5084 34.766 26.8529 39.106 32.2143 39.106C37.5756 39.106 41.9202 34.766 41.9202 29.4103V20.9612C41.9664 15.6054 37.5756 11.2193 32.2143 11.2193ZM32.2143 32.2266C31.105 32.2266 30.1807 31.3032 30.1807 30.2413V20.1763C30.1807 19.0682 31.105 18.191 32.2143 18.191C33.3235 18.191 34.2017 19.1144 34.2017 20.1763V30.2413C34.2479 31.3032 33.3235 32.2266 32.2143 32.2266ZM53.6597 9.92654H55.7395C57.8655 9.92654 59.5756 8.58761 59.5756 6.46379C59.5756 4.33997 57.8655 3.00104 55.7395 3.00104H53.6134C48.2521 3.00104 43.9076 7.24868 43.9076 12.6044V35.3662C43.9076 37.49 45.6176 39.1983 47.7437 39.1983C49.8698 39.1983 51.5798 37.49 51.5798 35.3662V20.3148H54.2605C56.3866 20.3148 58.0966 18.9759 58.0966 16.852C58.0966 14.7282 56.3866 13.3431 54.2605 13.3431H51.5798V12.1427C51.626 10.8961 52.3655 9.92654 53.6597 9.92654ZM63.6891 30.7954C61.3319 30.7954 59.437 32.6883 59.437 35.043C59.437 37.3977 61.3319 39.2907 63.6891 39.2907C66.0462 39.2907 67.9412 37.3977 67.9412 35.043C67.9874 32.6883 66.0462 30.7954 63.6891 30.7954ZM69.605 9.92654H71.6849C73.8109 9.92654 75.521 8.58761 75.521 6.46379C75.521 4.33997 73.8109 3.00104 71.6849 3.00104H69.5588C64.1975 3.00104 59.8529 7.24868 59.8529 12.6044V25.6705C59.8529 27.7943 61.563 29.5026 63.6891 29.5026C65.8151 29.5026 67.5252 27.7943 67.5252 25.6705V20.3148H70.2059C72.3319 20.3148 74.042 18.9759 74.042 16.852C74.042 14.7282 72.3319 13.3431 70.2059 13.3431H67.5252V12.1427C67.5714 10.8961 68.3109 9.92654 69.605 9.92654ZM16.7773 1.70828C14.6513 1.70828 12.9412 3.41657 12.9412 5.54039V13.3431H7.67227V5.54039C7.67227 3.41657 5.96218 1.70828 3.83613 1.70828C1.71008 1.70828 0 3.41657 0 5.54039V35.32C0 37.4439 1.71008 39.1521 3.83613 39.1521C5.96218 39.1521 7.67227 37.4439 7.67227 35.32V20.3148H10.9538C12.0168 20.3148 12.895 21.192 12.895 22.2539V35.32C12.895 37.4439 14.605 39.1521 16.7311 39.1521C18.8571 39.1521 20.5672 37.4439 20.5672 35.32V5.54039C20.6597 3.41657 18.9034 1.70828 16.7773 1.70828Z" fill="#E60000"/>
</g>
<defs>
<clipPath id="clip0">
<rect width="76" height="44" fill="white"/>
</clipPath>
</defs>
</svg>
